<?xml version="1.0" encoding="UTF-8" standalone="no"?>
<!-- Created with Inkscape (http://www.inkscape.org/) -->

<svg
   xmlns="http://www.w3.org/2000/svg"
   version="1.1"
   width="640"
   height="1000">
  <metadata>
    <rdf:RDF
       xmlns:rdf="http://www.w3.org/1999/02/22-rdf-syntax-ns#">
      <cc:Work
         xmlns:cc="http://creativecommons.org/ns#"
         xmlns:dc="http://purl.org/dc/elements/1.1/"
         rdf:about="">
        <dc:format>image/svg+xml</dc:format>
        <dc:type
           rdf:resource="http://purl.org/dc/dcmitype/StillImage" />
        <dc:creator>art designer at PLoS, modified by Wikipedia users Nina, Beao, and JakobVoss</dc:creator>
        <dc:description>Open Access logo, converted into svg, designed by PLoS. This version with white background.</dc:description>
        <dc:source>http://commons.wikimedia.org/wiki/File:Open_Access_logo_PLoS_white.svg</dc:source>
        <dc:license
            rdf:resource="http://creativecommons.org/licenses/by-sa/3.0/" />
        <cc:license
            rdf:resource="http://creativecommons.org/licenses/by-sa/3.0/" />
        <cc:attributionName>art designer at PLoS, modified by Wikipedia users Nina, Beao, and JakobVoss</cc:attributionName>
        <cc:attributionURL>http://www.plos.org/</cc:attributionURL>
      </cc:Work>
    </rdf:RDF>
  </metadata>
  <g
     transform="translate(-528.67833,-378.69073)">
    <rect
       width="640"
       height="1000"
       x="528.67834"
       y="378.6907"
       style="fill:#ffffff;fill-opacity:1;stroke:none" />
    <path
       d="m 587.6826,651.09852 0,35.72783 104.76422,0 0,-35.72783 c 0,-86.48025 70.36112,-156.8333 156.82925,-156.8333 86.46813,0 156.82523,70.35304 156.82523,156.8333 l 0,258.42696 104.7642,0 0,-258.42696 c 0,-144.2401 -117.35336,-261.59346 -261.58943,-261.59346 -144.23204,0 -261.59348,117.35336 -261.59348,261.59346"
       style="fill:#f68212;fill-opacity:1;fill-rule:nonzero;stroke:none" />
    <path
       d="m 936.11577,1060.3489 c 0,47.7233 -38.69235,86.4157 -86.42773,86.4157 -47.73135,0 -86.42776,-38.6924 -86.42776,-86.4157 0,-47.7515 38.69641,-86.44787 86.42776,-86.44787 47.73538,0 86.42773,38.69637 86.42773,86.44787"
       style="fill:#f68212;fill-opacity:1;fill-rule:nonzero;stroke:none" />
    <path
       d="m 644.97395,1059.416 c 0,-112.32498 91.38747,-203.70437 203.7084,-203.70437 112.3169,0 203.69225,91.3794 203.69225,203.70437 0,112.3128 -91.37537,203.7084 -203.69224,203.7084 -112.32093,0 -203.7084,-91.3956 -203.7084,-203.7084 m -104.76018,0 c 0,170.0686 138.39184,308.4604 308.46858,308.4604 170.08084,0 308.46054,-138.3918 308.46054,-308.4604 0,-170.09295 -138.3797,-308.46857 -308.46056,-308.46857 -170.07674,0 -308.46858,138.37563 -308.46858,308.46857"
       style="fill:#f68212;fill-opacity:1;fill-rule:nonzero;stroke:none" />
  </g>
</svg>
